<?xml version="1.0" encoding="UTF-8" standalone="no"?>
<!-- Created with Inkscape (http://www.inkscape.org/) -->

<svg
   version="1.1"
   id="svg2"
   width="500"
   height="500"
   viewBox="0 0 500 500"
   sodipodi:docname="AniMouth_mask.svg"
   inkscape:version="1.2.2 (732a01da63, 2022-12-09)"
   xmlns:inkscape="http://www.inkscape.org/namespaces/inkscape"
   xmlns:sodipodi="http://sodipodi.sourceforge.net/DTD/sodipodi-0.dtd"
   xmlns="http://www.w3.org/2000/svg"
   xmlns:svg="http://www.w3.org/2000/svg">
  <defs
     id="defs6" />
  <sodipodi:namedview
     id="namedview4"
     pagecolor="#ffffff"
     bordercolor="#000000"
     borderopacity="0.25"
     inkscape:showpageshadow="2"
     inkscape:pageopacity="0.0"
     inkscape:pagecheckerboard="0"
     inkscape:deskcolor="#d1d1d1"
     showgrid="false"
     inkscape:zoom="1.658"
     inkscape:cx="213.20869"
     inkscape:cy="250.30157"
     inkscape:window-width="1920"
     inkscape:window-height="1009"
     inkscape:window-x="-8"
     inkscape:window-y="-8"
     inkscape:window-maximized="1"
     inkscape:current-layer="g8" />
  <g
     inkscape:groupmode="layer"
     inkscape:label="Image"
     id="g8">
    <path
       style="fill:#000000"
       d="m 202.88599,328.49003 c -3.52341,-4.23662 -15.98294,-18.05294 -27.68784,-30.70294 -26.94292,-29.11838 -36.10355,-40.01847 -46.22298,-55 -14.23699,-21.07746 -20.12054,-36.73721 -20.10056,-53.5 0.006,-5.225 0.51594,-11.3 1.13269,-13.5 l 1.12136,-4 6.78097,0.28901 c 6.5286,0.27826 6.91578,0.44055 10.40353,4.36066 l 3.62257,4.07164 10.87743,-2.33634 10.87743,-2.33633 -8.5,-0.77962 c -4.675,-0.42879 -8.95428,-0.94659 -9.50952,-1.15066 -0.55524,-0.20406 -1.54867,-2.38686 -2.20764,-4.85066 l -1.19812,-4.47964 -7.5267,-1.21418 c -4.13969,-0.66781 -7.78297,-1.62884 -8.09618,-2.13563 -0.54343,-0.87928 4.645,-9.26821 6.40499,-10.35595 0.46252,-0.28585 5.9692,0.36546 12.23706,1.44737 34.77411,6.00242 69.41764,8.56796 93.9491,6.95744 30.59621,-2.00868 49.23453,-6.61448 86.94701,-21.48585 23.50754,-9.26986 41.05925,-14.79019 55.25,-17.37714 5.23688,-0.95467 5.64149,-0.53562 2.88793,2.99102 -2.88347,3.69302 -12.41134,20.68694 -15.4498,27.55629 -12.53381,28.33638 -7.35013,52.15395 14.32939,65.83963 l 4.09058,2.58227 -4.30405,5.17966 c -23.99127,28.87206 -48.84485,47.07774 -113.30405,82.99719 -19.25,10.72693 -38.46464,21.55825 -42.6992,24.0696 l -7.6992,4.5661 z m 7.29645,-23.01815 c 0.66608,-8.97337 1.04647,-16.4798 0.8453,-16.68097 -0.20117,-0.20117 -2.52642,1.51567 -5.16723,3.81521 l -4.80146,4.18097 3.3096,14.76851 c 2.28407,10.19225 3.50995,14.06557 3.95616,12.5 0.35561,-1.24768 1.19154,-9.61035 1.85763,-18.58372 z m 12.36298,1.32911 c 2.50898,-5.49236 4.9817,-10.12608 5.49493,-10.29715 0.51322,-0.17108 4.39417,1.73517 8.62432,4.2361 4.23015,2.50093 7.89334,4.54715 8.14043,4.54715 0.50392,0 68.20099,-48.67244 70.09669,-50.3977 1.13458,-1.03257 1.65016,-6.02294 5.44948,-52.74552 0.80424,-9.89029 0.80852,-14.50636 0.0156,-16.78106 -1.08991,-3.12651 -1.07375,-3.14768 4.46942,-5.85679 l 5.56328,-2.71893 -0.60368,-5.16894 c -0.46124,-3.94936 -0.13197,-6.26938 1.39553,-9.83291 1.09957,-2.56518 1.99921,-5.08538 1.99921,-5.60045 0,-0.51506 -2.25,0.7433 -5,2.79636 -4.63863,3.46306 -5,4.04193 -5,8.00936 v 4.27651 l -8.75,4.39195 -8.75,4.39195 -3.24455,-2.22621 c -3.07066,-2.1069 -3.59616,-2.16014 -9.80526,-0.99332 -3.60839,0.67809 -6.77199,1.44417 -7.03022,1.7024 -0.25823,0.25822 2.27994,1.05297 5.64038,1.76611 5.40806,1.14767 6.38872,1.7383 8.53731,5.1419 1.33509,2.11491 2.63012,3.84529 2.87786,3.84529 0.24774,0 2.78636,-0.92074 5.64138,-2.04608 6.27264,-2.47244 7.27324,-1.80041 7.09821,4.76731 -0.12046,4.51991 -2.43963,35.31488 -3.84134,51.00679 l -0.64565,7.22803 -31.43416,23.58026 c -17.28879,12.96914 -32.00232,23.79828 -32.69673,24.06475 -0.69441,0.26647 -6.75699,-2.67173 -13.47239,-6.52935 -7.83253,-4.49933 -12.35432,-6.57608 -12.61288,-5.79277 -0.74015,2.24227 -7.51281,38.43921 -7.45435,39.84032 0.0586,1.40442 1.1992,-0.87813 9.29722,-18.60536 z m 92.61167,-144.06676 c 3.25591,-9.44571 3.38066,-9.62749 11.12226,-16.20758 4.30618,-3.66009 7.67387,-6.81027 7.48375,-7.00038 -0.19011,-0.19012 -5.20163,2.2658 -11.13671,5.45758 l -10.79104,5.80324 -1.95929,6 c -1.0776,3.3 -2.035,6.09983 -2.12755,6.22184 -0.0926,0.12202 -3.55931,-1.55506 -7.70392,-3.72684 l -7.53564,-3.94869 -12.18976,4.11294 c -6.70436,2.26211 -12.04571,4.25697 -11.86967,4.43302 0.17605,0.17605 5.95133,-0.17921 12.83396,-0.78946 l 12.51386,-1.10954 8.44663,5.08161 c 4.64564,2.79488 8.71069,5.1139 9.03345,5.15336 0.32276,0.0395 2.06861,-4.22703 3.87967,-9.4811 z"
       id="path170" />
  </g>
</svg>
