<?xml version="1.0" encoding="UTF-8" standalone="no"?>
<!-- Created with Inkscape (http://www.inkscape.org/) -->

<svg
   version="1.1"
   id="svg422"
   width="500"
   height="500"
   viewBox="0 0 500 450"
   sodipodi:docname="logo_AniMouth - Copie.svg"
   inkscape:version="1.2.2 (732a01da63, 2022-12-09)"
   xmlns:inkscape="http://www.inkscape.org/namespaces/inkscape"
   xmlns:sodipodi="http://sodipodi.sourceforge.net/DTD/sodipodi-0.dtd"
   xmlns="http://www.w3.org/2000/svg"
   xmlns:svg="http://www.w3.org/2000/svg">
  <defs
     id="defs426" />
  <sodipodi:namedview
     id="namedview424"
     pagecolor="#ffffff"
     bordercolor="#000000"
     borderopacity="0.25"
     inkscape:showpageshadow="2"
     inkscape:pageopacity="0.0"
     inkscape:pagecheckerboard="0"
     inkscape:deskcolor="#d1d1d1"
     showgrid="false"
     inkscape:zoom="1.1009789"
     inkscape:cx="118.07674"
     inkscape:cy="275.20963"
     inkscape:window-width="1920"
     inkscape:window-height="1009"
     inkscape:window-x="-8"
     inkscape:window-y="-8"
     inkscape:window-maximized="1"
     inkscape:current-layer="g428" />
  <g
     inkscape:groupmode="layer"
     inkscape:label="Image"
     id="g428">
    <path
       style="fill:#000;stroke-width:1.0104"
       d="m 119.68521,281.68068 c -1.38461,-1.76437 -7.72862,-8.85914 -14.0978,-15.76616 -25.052918,-27.16844 -34.532283,-39.46512 -40.305759,-52.2848 -3.108513,-6.90228 -5.390857,-18.20613 -4.524349,-22.4079 1.757897,-8.52419 1.274644,-7.90551 5.707422,-7.3069 2.241892,0.30274 5.080404,1.50028 6.307805,2.66121 2.528941,2.39196 5.348929,2.54816 11.164702,0.61841 l 4.027941,-1.33652 -5.273158,-0.10631 c -5.037862,-0.10156 -5.33887,-0.26465 -6.745767,-3.65471 -1.258647,-3.03285 -1.95558,-3.55066 -4.796693,-3.56393 -5.546182,-0.026 -6.500882,-1.2738 -3.846167,-5.02735 1.849809,-2.61547 2.754325,-3.10521 4.786696,-2.59165 11.492952,2.90416 32.576417,4.93285 51.623067,4.96727 23.82037,0.0431 33.05623,-1.46653 52.61418,-8.59965 28.17858,-10.2772 35.94164,-12.91273 42.29417,-14.35868 3.73843,-0.85094 6.79715,-1.33235 6.79715,-1.0698 0,0.26255 -1.40469,2.53289 -3.12153,5.0452 -4.17141,6.10414 -9.42463,17.8525 -10.97746,24.55011 -1.5303,6.60043 -0.80578,13.83723 1.92483,19.22607 1.89804,3.74575 9.49477,11.33041 11.34843,11.33041 1.79114,0 0.60854,2.16075 -4.26802,7.79819 -12.82549,14.82664 -31.87855,28.45789 -67.40918,48.22696 -12.46144,6.93348 -24.24317,13.5866 -26.18162,14.78471 -1.93844,1.1981 -3.75102,2.15483 -4.02794,2.12606 -0.27692,-0.0288 -1.63635,-1.49588 -3.02095,-3.26024 z m 10.12301,-12.2141 c 1.86766,-4.36178 3.70791,-8.12474 4.08942,-8.36214 0.38153,-0.23738 2.66424,0.70256 5.0727,2.08877 2.40846,1.38622 4.87075,2.52589 5.47177,2.5326 1.81675,0.0203 43.16782,-30.3961 43.82864,-32.23882 0.97972,-2.73199 3.26836,-37.05459 2.67809,-40.16332 -0.45348,-2.38839 -0.0163,-3.128 2.85853,-4.83572 2.94015,-1.74651 3.37448,-2.51534 3.24857,-5.75044 -0.08,-2.05392 0.37811,-4.71912 1.01788,-5.92267 1.79238,-3.37187 1.41697,-3.65539 -1.79302,-1.35413 -1.7785,1.27501 -3.08232,3.22104 -3.2727,4.88472 -0.42331,3.69899 -9.7113,9.04781 -12.81097,7.37765 -2.3719,-1.27804 -7.12341,-1.36571 -9.00354,-0.16614 -0.95574,0.6098 -0.31325,1.06407 2.16775,1.53267 2.10227,0.39707 4.16264,1.64407 5.10245,3.08815 1.43782,2.20931 1.88881,2.32562 5.13203,1.32347 1.95562,-0.60427 3.81057,-0.84206 4.1221,-0.52841 0.55021,0.55395 -0.97884,24.73221 -2.18516,34.55308 l -0.59889,4.87568 -19.56232,14.64056 c -10.75928,8.05231 -19.84388,14.64056 -20.18801,14.64056 -0.34412,0 -3.79219,-1.83804 -7.66239,-4.08455 -3.8702,-2.24649 -7.21996,-3.90004 -7.44394,-3.67455 -0.35324,0.35564 -5.35708,23.63336 -5.35708,24.92097 0,1.47026 2.10147,-2.40301 5.08809,-9.37799 z m -7.10206,5.04197 c 0,-1.86749 0.28008,-7.00001 0.62241,-11.40559 l 0.6224,-8.01016 -3.15519,3.07642 -3.1552,3.07642 1.73924,8.32918 c 1.79664,8.60407 3.32634,10.87298 3.32634,4.93373 z m 64.99407,-96.09189 c 1.22035,-3.69912 3.20659,-6.62318 6.87808,-10.12564 l 5.16222,-4.92455 -6.8693,3.64212 c -3.77812,2.00317 -7.04997,4.16453 -7.27077,4.80303 -0.22081,0.6385 -0.87095,2.45289 -1.44477,4.03199 l -1.0433,2.87109 -4.53026,-2.54923 -4.53027,-2.54923 -6.79187,2.47165 -6.79188,2.47164 7.22014,-0.37121 c 6.48187,-0.33327 7.71745,-0.0764 12.08382,2.51181 2.67503,1.58567 5.16712,2.89082 5.53799,2.90033 0.37087,0.009 1.44645,-2.32321 2.39017,-5.1838 z m 41.74636,79.933 c -1.76469,-0.89408 -2.84378,-2.63175 -3.60877,-5.81117 -1.01379,-4.21357 -1.37138,-4.5858 -5.03493,-5.24105 -7.68749,-1.37497 -8.15279,-1.18318 -12.62692,5.20424 l -4.22126,6.02643 -2.86232,-1.49023 c -1.57429,-0.81962 -2.86234,-1.90485 -2.86234,-2.41161 0,-2.87024 28.37624,-34.63749 35.53838,-39.78528 1.85672,-1.33452 3.64191,-1.8108 5.25726,-1.40261 2.07402,0.52408 2.31164,0.9736 1.56283,2.95649 -2.36053,6.25087 -5.23028,23.27851 -5.24045,31.0942 -0.0165,12.66108 -0.51977,13.58726 -5.90148,10.86059 z m -1.87521,-22.49033 c 0.97108,-3.88713 1.62704,-7.20702 1.45769,-7.37751 -0.16936,-0.17051 -3.15406,2.75321 -6.63268,6.49714 -5.57415,5.99928 -6.09877,6.89928 -4.42047,7.58342 1.04738,0.42695 3.23756,0.68361 4.86708,0.57037 2.7871,-0.19371 3.06747,-0.62498 4.72838,-7.27342 z m 94.62149,22.86782 c -1.98222,-1.26363 -1.07256,-5.73854 3.82815,-18.83189 2.26447,-6.05 4.00155,-11.11645 3.86019,-11.25878 -0.14136,-0.14232 -2.91713,1.74472 -6.16838,4.19343 -6.76279,5.09349 -7.08478,5.04709 -13.48457,-1.94306 l -4.18241,-4.56822 -4.60168,14.64054 c -2.53093,8.0523 -4.97749,14.64055 -5.43681,14.64055 -0.45932,0 -1.96278,-0.89304 -3.34103,-1.98454 l -2.5059,-1.98454 -2.85322,2.99837 c -1.71176,1.79883 -3.88572,2.99685 -5.43404,2.99458 -3.44513,-0.005 -9.12621,-3.58834 -9.12621,-5.75626 0,-1.35287 -0.7201,-1.04831 -3.27271,1.3842 -4.01432,3.82544 -6.93227,5.38968 -10.054,5.38968 -3.63445,0 -4.79903,-1.9149 -4.79903,-7.89098 0,-6.99052 -1.56889,-6.66352 -5.27681,1.09984 -2.24477,4.69992 -3.21959,5.77731 -5.22725,5.77731 -3.38137,0 -3.83723,-1.1933 -2.07657,-5.4358 2.07429,-4.99823 1.99755,-8.1517 -0.17792,-7.31121 -3.04434,1.17616 -3.42084,-1.77151 -0.60432,-4.73131 3.01195,-3.16517 4.50673,-3.46995 6.30702,-1.28598 1.08618,1.31766 1.63041,1.18717 4.2285,-1.01383 3.64489,-3.08783 5.21776,-3.16097 7.98841,-0.37149 1.90091,1.91383 2.0666,2.87703 1.48244,8.61756 -0.53531,5.2604 -0.38741,6.46291 0.79488,6.46291 1.83662,0 12.49625,-10.9154 13.34085,-13.66094 1.00481,-3.26638 4.40307,-7.62951 5.94229,-7.62951 0.77536,0 2.01942,1.17153 2.76459,2.60339 1.20296,2.31155 1.08508,3.15217 -1.05174,7.49922 -1.32361,2.69272 -2.25866,6.16373 -2.07791,7.71337 l 0.32865,2.81753 5.35995,-4.99414 c 5.0709,-4.72481 5.59782,-5.70407 9.77073,-18.15804 2.42592,-7.24015 4.84447,-13.30945 5.37456,-13.48735 1.11134,-0.37296 4.69297,3.28622 9.96084,10.1765 2.02497,2.64863 4.08868,4.81569 4.58601,4.81569 0.49733,0 4.36922,-2.88886 8.60419,-6.41968 4.23498,-3.53083 9.15431,-7.26806 10.93185,-8.30497 3.14273,-1.83326 3.28858,-1.83362 5.28668,-0.0131 1.13013,1.02971 2.05565,2.37177 2.05671,2.98236 0.001,0.61058 -3.5108,10.11339 -7.80413,21.11735 -6.51987,16.71061 -8.13791,20.00727 -9.82004,20.00763 -1.10769,2.4e-4 -2.64705,-0.40315 -3.42081,-0.89641 z m 19.34466,-3.12835 c -2.26001,-1.67334 -4.34887,-3.9655 -4.64191,-5.0937 -1.82398,-7.02233 7.95523,-19.23732 15.40124,-19.23732 3.01155,0 7.05082,4.77383 7.05082,8.33303 0,4.21294 3.00681,3.37877 5.36961,-1.48967 1.53166,-3.15592 2.36686,-3.80186 4.91577,-3.80186 3.40966,0 3.29538,-1.25752 1.1286,12.41942 -0.47954,3.02689 -0.28229,3.80187 0.96766,3.80187 2.02551,0 4.61993,-3.37073 7.7003,-10.00437 1.92204,-4.13916 2.91319,-5.23719 4.53437,-5.0233 1.14107,0.15055 3.43278,-0.2632 5.0927,-0.91944 1.6599,-0.65625 4.91667,-1.68094 7.23726,-2.27712 3.53679,-0.90861 4.83981,-2.02318 8.05588,-6.89077 3.88223,-5.87585 7.02674,-7.54188 10.24789,-5.42955 1.11112,0.72864 0.86856,1.65487 -1.25873,4.80676 -3.32822,4.93121 -3.30674,5.7482 0.13415,5.10314 1.52306,-0.28553 4.47273,-0.79948 6.55484,-1.14211 3.40536,-0.56039 4.08762,-1.22529 6.7922,-6.61945 3.45803,-6.89688 9.22803,-13.17085 12.1129,-13.17085 3.44472,0 6.30661,3.81535 5.59266,7.45588 -1.0489,5.34845 -5.86691,13.92211 -11.01394,19.59935 -2.68632,2.96304 -4.585,5.38735 -4.21928,5.38735 0.36572,0 2.74207,-1.59678 5.28077,-3.54841 2.53871,-1.95162 5.68353,-3.5484 6.98849,-3.5484 2.04394,0 2.37266,0.49562 2.37266,3.57732 0,1.98694 -1.40021,6.38145 -3.14959,9.88485 -3.56144,7.13233 -3.30962,7.04372 6.45966,-2.27296 3.85774,-3.67901 5.00019,-4.30459 5.71991,-3.13215 1.22375,1.99354 -0.0127,4.04067 -6.45037,10.67933 -4.20018,4.33134 -6.10974,5.59554 -8.45194,5.59554 -6.9853,0 -7.88995,-2.81561 -3.62633,-11.28665 1.42184,-2.82494 2.34046,-5.38262 2.04138,-5.68374 -1.01185,-1.01874 -7.65216,4.89735 -11.72117,10.4428 -2.99855,4.08659 -4.68913,5.51376 -6.53143,5.51376 -1.82022,0 -2.48571,-0.54671 -2.48571,-2.04205 0,-1.93562 -0.21258,-1.9004 -4.0792,0.6758 l -4.0792,2.71784 -5.46013,-1.73286 c -3.00308,-0.95306 -6.07541,-2.61725 -6.82741,-3.69818 -1.32484,-1.90434 -1.45384,-1.87438 -4.15622,0.96547 -1.53391,1.61194 -3.5854,3.1405 -4.55886,3.3968 -2.51609,0.66245 -8.09743,-1.92102 -8.09743,-3.74809 0,-1.29267 -0.51757,-1.23193 -3.2727,0.38405 -2.96436,1.7387 -3.65094,1.78671 -7.28732,0.50967 -2.20804,-0.77544 -4.57159,-2.2249 -5.25232,-3.22103 -3.36526,-4.92439 -4.83031,-5.51409 -5.82896,-2.34624 -0.70543,2.23772 -8.30709,9.15265 -10.06161,9.15265 -0.62197,0 -2.97994,-1.36909 -5.23996,-3.04241 z m 71.43582,-8.63607 c 4.38248,-3.46303 6.03945,-5.59945 7.60673,-9.80775 1.10206,-2.95915 1.90942,-5.48342 1.79414,-5.60948 -0.11528,-0.12606 -3.12563,0.36967 -6.68966,1.1016 -5.67177,1.1648 -6.72601,1.7548 -8.45191,4.73004 -2.22755,3.84002 -4.5379,12.05492 -3.88159,13.80176 0.68636,1.82683 3.57865,0.55953 9.62229,-4.21617 z m -21.56565,-0.94152 c 1.84852,-1.70191 4.24929,-4.83 5.33505,-6.95132 l 1.97411,-3.85694 -3.82457,0.65052 c -2.10352,0.35779 -4.50429,0.83809 -5.33505,1.06735 -1.39191,0.38411 -5.09622,10.2583 -5.05346,13.47042 0.0215,1.60805 1.23905,0.83555 6.90392,-4.38003 z m -40.2914,-0.0585 c 1.90631,-2.43994 1.95989,-5.98086 0.10795,-7.1332 -1.23031,-0.76554 -5.97436,6.72848 -5.97436,9.43753 0,1.98934 0.28651,2.18052 1.93588,1.2918 1.06472,-0.5737 2.83347,-2.19195 3.93053,-3.59613 z m 85.89711,-21.59116 c 1.16416,-2.39894 1.86185,-4.61824 1.55043,-4.93177 -0.79105,-0.79643 -8.73529,11.78076 -8.69098,13.75942 0.0494,2.20684 4.38948,-3.15866 7.14055,-8.82765 z m -153.62781,2.91359 c -2.39948,-2.66945 -1.24521,-6.15566 2.03812,-6.15566 1.64149,0 2.84649,0.82927 3.58897,2.46992 2.26257,4.99959 -1.95999,7.76535 -5.62709,3.68571 z"
       id="path432" />
  </g>
</svg>
